<mxfile host="app.diagrams.net" agent="Mozilla/5.0 (Windows NT 10.0; Win64; x64) AppleWebKit/537.36 (KHTML, like Gecko) Chrome/132.0.0.0 YaBrowser/25.2.0.0 Safari/537.36" version="26.1.1">
  <diagram name="Страница — 1" id="NDfYiFxSxV_PJeX2wxCn">
    <mxGraphModel dx="2385" dy="1178" grid="1" gridSize="10" guides="1" tooltips="1" connect="1" arrows="1" fold="1" page="1" pageScale="1" pageWidth="827" pageHeight="1169" math="0" shadow="0">
      <root>
        <mxCell id="0" />
        <mxCell id="1" parent="0" />
        <mxCell id="a2V4H0LdFu0M5qWoZMPw-17" style="edgeStyle=orthogonalEdgeStyle;rounded=0;orthogonalLoop=1;jettySize=auto;html=1;" edge="1" parent="1" source="a2V4H0LdFu0M5qWoZMPw-1">
          <mxGeometry relative="1" as="geometry">
            <mxPoint x="810" y="500" as="targetPoint" />
          </mxGeometry>
        </mxCell>
        <mxCell id="a2V4H0LdFu0M5qWoZMPw-18" value="Высококачественная 3D модель" style="edgeLabel;html=1;align=center;verticalAlign=middle;resizable=0;points=[];" vertex="1" connectable="0" parent="a2V4H0LdFu0M5qWoZMPw-17">
          <mxGeometry x="-0.099" y="2" relative="1" as="geometry">
            <mxPoint y="-8" as="offset" />
          </mxGeometry>
        </mxCell>
        <mxCell id="a2V4H0LdFu0M5qWoZMPw-3" style="edgeStyle=orthogonalEdgeStyle;rounded=0;orthogonalLoop=1;jettySize=auto;html=1;entryX=0;entryY=0.5;entryDx=0;entryDy=0;" edge="1" parent="1" target="a2V4H0LdFu0M5qWoZMPw-1">
          <mxGeometry relative="1" as="geometry">
            <mxPoint x="320" y="500" as="sourcePoint" />
          </mxGeometry>
        </mxCell>
        <mxCell id="a2V4H0LdFu0M5qWoZMPw-4" value="Наборы фотографий" style="text;html=1;align=center;verticalAlign=middle;resizable=0;points=[];autosize=1;strokeColor=none;fillColor=none;" vertex="1" parent="1">
          <mxGeometry x="274" y="460" width="140" height="30" as="geometry" />
        </mxCell>
        <mxCell id="a2V4H0LdFu0M5qWoZMPw-14" style="edgeStyle=orthogonalEdgeStyle;rounded=0;orthogonalLoop=1;jettySize=auto;html=1;entryX=0;entryY=0;entryDx=0;entryDy=0;strokeColor=#006666;" edge="1" parent="1" source="a2V4H0LdFu0M5qWoZMPw-7" target="a2V4H0LdFu0M5qWoZMPw-1">
          <mxGeometry relative="1" as="geometry">
            <Array as="points">
              <mxPoint x="250" y="430" />
              <mxPoint x="420" y="430" />
            </Array>
          </mxGeometry>
        </mxCell>
        <mxCell id="a2V4H0LdFu0M5qWoZMPw-85" style="edgeStyle=orthogonalEdgeStyle;rounded=0;orthogonalLoop=1;jettySize=auto;html=1;entryX=0.25;entryY=0;entryDx=0;entryDy=0;strokeColor=#006666;" edge="1" parent="1" source="a2V4H0LdFu0M5qWoZMPw-7" target="a2V4H0LdFu0M5qWoZMPw-63">
          <mxGeometry relative="1" as="geometry">
            <Array as="points">
              <mxPoint x="250" y="430" />
              <mxPoint x="1663" y="430" />
            </Array>
          </mxGeometry>
        </mxCell>
        <mxCell id="a2V4H0LdFu0M5qWoZMPw-7" value="Требования к качеству 3D модели" style="text;html=1;align=center;verticalAlign=middle;whiteSpace=wrap;rounded=0;" vertex="1" parent="1">
          <mxGeometry x="190" y="350" width="120" height="40" as="geometry" />
        </mxCell>
        <mxCell id="a2V4H0LdFu0M5qWoZMPw-13" style="edgeStyle=orthogonalEdgeStyle;rounded=0;orthogonalLoop=1;jettySize=auto;html=1;entryX=0.25;entryY=0;entryDx=0;entryDy=0;strokeColor=#FF6666;" edge="1" parent="1" source="a2V4H0LdFu0M5qWoZMPw-9" target="a2V4H0LdFu0M5qWoZMPw-1">
          <mxGeometry relative="1" as="geometry">
            <Array as="points">
              <mxPoint x="440" y="420" />
              <mxPoint x="453" y="420" />
            </Array>
          </mxGeometry>
        </mxCell>
        <mxCell id="a2V4H0LdFu0M5qWoZMPw-68" style="edgeStyle=orthogonalEdgeStyle;rounded=0;orthogonalLoop=1;jettySize=auto;html=1;strokeColor=#FF6666;" edge="1" parent="1" source="a2V4H0LdFu0M5qWoZMPw-9" target="a2V4H0LdFu0M5qWoZMPw-63">
          <mxGeometry relative="1" as="geometry">
            <Array as="points">
              <mxPoint x="400" y="420" />
              <mxPoint x="1695" y="420" />
            </Array>
          </mxGeometry>
        </mxCell>
        <mxCell id="a2V4H0LdFu0M5qWoZMPw-9" value="Методы и алгоритмы фотограмметрии" style="text;html=1;align=center;verticalAlign=middle;whiteSpace=wrap;rounded=0;" vertex="1" parent="1">
          <mxGeometry x="340" y="350" width="120" height="40" as="geometry" />
        </mxCell>
        <mxCell id="a2V4H0LdFu0M5qWoZMPw-15" style="edgeStyle=orthogonalEdgeStyle;rounded=0;orthogonalLoop=1;jettySize=auto;html=1;entryX=0.5;entryY=0;entryDx=0;entryDy=0;strokeColor=#33FF33;" edge="1" parent="1" source="a2V4H0LdFu0M5qWoZMPw-10" target="a2V4H0LdFu0M5qWoZMPw-1">
          <mxGeometry relative="1" as="geometry">
            <Array as="points">
              <mxPoint x="565" y="420" />
              <mxPoint x="485" y="420" />
            </Array>
          </mxGeometry>
        </mxCell>
        <mxCell id="a2V4H0LdFu0M5qWoZMPw-101" style="edgeStyle=orthogonalEdgeStyle;rounded=0;orthogonalLoop=1;jettySize=auto;html=1;entryX=0.5;entryY=0;entryDx=0;entryDy=0;strokeColor=#33FF33;" edge="1" parent="1" source="a2V4H0LdFu0M5qWoZMPw-10" target="a2V4H0LdFu0M5qWoZMPw-76">
          <mxGeometry relative="1" as="geometry">
            <mxPoint x="850.8333333333334" y="1090" as="targetPoint" />
            <Array as="points">
              <mxPoint x="565" y="420" />
              <mxPoint x="2625" y="420" />
            </Array>
          </mxGeometry>
        </mxCell>
        <mxCell id="a2V4H0LdFu0M5qWoZMPw-10" value="Методы и алгоритмы фотометрического стерео" style="text;html=1;align=center;verticalAlign=middle;whiteSpace=wrap;rounded=0;" vertex="1" parent="1">
          <mxGeometry x="480" y="350" width="170" height="40" as="geometry" />
        </mxCell>
        <mxCell id="a2V4H0LdFu0M5qWoZMPw-16" style="edgeStyle=orthogonalEdgeStyle;rounded=0;orthogonalLoop=1;jettySize=auto;html=1;entryX=1;entryY=0;entryDx=0;entryDy=0;" edge="1" parent="1" source="a2V4H0LdFu0M5qWoZMPw-11" target="a2V4H0LdFu0M5qWoZMPw-1">
          <mxGeometry relative="1" as="geometry">
            <Array as="points">
              <mxPoint x="765" y="430" />
              <mxPoint x="550" y="430" />
            </Array>
          </mxGeometry>
        </mxCell>
        <mxCell id="a2V4H0LdFu0M5qWoZMPw-11" value="Технические ограничения" style="text;html=1;align=center;verticalAlign=middle;whiteSpace=wrap;rounded=0;" vertex="1" parent="1">
          <mxGeometry x="680" y="350" width="170" height="40" as="geometry" />
        </mxCell>
        <mxCell id="a2V4H0LdFu0M5qWoZMPw-27" value="" style="group" vertex="1" connectable="0" parent="1">
          <mxGeometry x="420" y="470" width="150" height="68" as="geometry" />
        </mxCell>
        <mxCell id="a2V4H0LdFu0M5qWoZMPw-1" value="Создание высококачественной 3D-модели" style="rounded=0;whiteSpace=wrap;html=1;" vertex="1" parent="a2V4H0LdFu0M5qWoZMPw-27">
          <mxGeometry width="130" height="60" as="geometry" />
        </mxCell>
        <mxCell id="a2V4H0LdFu0M5qWoZMPw-5" value="0" style="text;html=1;align=center;verticalAlign=middle;whiteSpace=wrap;rounded=0;" vertex="1" parent="a2V4H0LdFu0M5qWoZMPw-27">
          <mxGeometry x="90" y="38" width="60" height="30" as="geometry" />
        </mxCell>
        <mxCell id="a2V4H0LdFu0M5qWoZMPw-28" value="П" style="group" vertex="1" connectable="0" parent="1">
          <mxGeometry x="1060" y="510" width="150" height="68" as="geometry" />
        </mxCell>
        <mxCell id="a2V4H0LdFu0M5qWoZMPw-29" value="Подготовка и группировка&amp;nbsp; фотографий по партиям" style="rounded=0;whiteSpace=wrap;html=1;" vertex="1" parent="a2V4H0LdFu0M5qWoZMPw-28">
          <mxGeometry width="130" height="60" as="geometry" />
        </mxCell>
        <mxCell id="a2V4H0LdFu0M5qWoZMPw-30" value="1" style="text;html=1;align=center;verticalAlign=middle;whiteSpace=wrap;rounded=0;" vertex="1" parent="a2V4H0LdFu0M5qWoZMPw-28">
          <mxGeometry x="90" y="38" width="60" height="30" as="geometry" />
        </mxCell>
        <mxCell id="a2V4H0LdFu0M5qWoZMPw-34" style="edgeStyle=orthogonalEdgeStyle;rounded=0;orthogonalLoop=1;jettySize=auto;html=1;strokeColor=#99004D;exitX=0.5;exitY=0;exitDx=0;exitDy=0;entryX=0.082;entryY=1.004;entryDx=0;entryDy=0;entryPerimeter=0;" edge="1" parent="1" source="a2V4H0LdFu0M5qWoZMPw-35" target="a2V4H0LdFu0M5qWoZMPw-1">
          <mxGeometry relative="1" as="geometry">
            <mxPoint x="210" y="650" as="sourcePoint" />
            <mxPoint x="460" y="550" as="targetPoint" />
            <Array as="points">
              <mxPoint x="430" y="540" />
              <mxPoint x="431" y="540" />
            </Array>
          </mxGeometry>
        </mxCell>
        <mxCell id="a2V4H0LdFu0M5qWoZMPw-69" style="edgeStyle=orthogonalEdgeStyle;rounded=0;orthogonalLoop=1;jettySize=auto;html=1;entryX=0.5;entryY=1;entryDx=0;entryDy=0;strokeColor=#99004D;" edge="1" parent="1" source="a2V4H0LdFu0M5qWoZMPw-35" target="a2V4H0LdFu0M5qWoZMPw-63">
          <mxGeometry relative="1" as="geometry">
            <Array as="points">
              <mxPoint x="430" y="720" />
              <mxPoint x="1695" y="720" />
            </Array>
          </mxGeometry>
        </mxCell>
        <mxCell id="a2V4H0LdFu0M5qWoZMPw-35" value="Фотограмметрический процессор" style="text;html=1;align=center;verticalAlign=middle;whiteSpace=wrap;rounded=0;" vertex="1" parent="1">
          <mxGeometry x="370" y="837" width="120" height="40" as="geometry" />
        </mxCell>
        <mxCell id="a2V4H0LdFu0M5qWoZMPw-37" style="edgeStyle=orthogonalEdgeStyle;rounded=0;orthogonalLoop=1;jettySize=auto;html=1;entryX=0.5;entryY=1;entryDx=0;entryDy=0;strokeColor=#000066;" edge="1" parent="1" source="a2V4H0LdFu0M5qWoZMPw-36" target="a2V4H0LdFu0M5qWoZMPw-1">
          <mxGeometry relative="1" as="geometry" />
        </mxCell>
        <mxCell id="a2V4H0LdFu0M5qWoZMPw-103" style="edgeStyle=orthogonalEdgeStyle;rounded=0;orthogonalLoop=1;jettySize=auto;html=1;entryX=0.5;entryY=1;entryDx=0;entryDy=0;strokeColor=#000066;" edge="1" parent="1" source="a2V4H0LdFu0M5qWoZMPw-36" target="a2V4H0LdFu0M5qWoZMPw-76">
          <mxGeometry relative="1" as="geometry" />
        </mxCell>
        <mxCell id="a2V4H0LdFu0M5qWoZMPw-36" value="&amp;nbsp;Процессор&lt;div&gt;Фотометрического стерео&lt;/div&gt;" style="text;html=1;align=center;verticalAlign=middle;whiteSpace=wrap;rounded=0;" vertex="1" parent="1">
          <mxGeometry x="500" y="837" width="120" height="40" as="geometry" />
        </mxCell>
        <mxCell id="a2V4H0LdFu0M5qWoZMPw-38" value="Оборудование (Камеры, компьютеры, освещение)" style="text;html=1;align=center;verticalAlign=middle;whiteSpace=wrap;rounded=0;" vertex="1" parent="1">
          <mxGeometry x="435" y="780" width="120" height="40" as="geometry" />
        </mxCell>
        <mxCell id="a2V4H0LdFu0M5qWoZMPw-41" style="edgeStyle=orthogonalEdgeStyle;rounded=0;orthogonalLoop=1;jettySize=auto;html=1;entryX=0.75;entryY=1;entryDx=0;entryDy=0;exitX=0.5;exitY=0;exitDx=0;exitDy=0;" edge="1" parent="1" source="a2V4H0LdFu0M5qWoZMPw-39" target="a2V4H0LdFu0M5qWoZMPw-1">
          <mxGeometry relative="1" as="geometry">
            <mxPoint x="518" y="700" as="sourcePoint" />
            <Array as="points">
              <mxPoint x="709" y="710" />
              <mxPoint x="517" y="710" />
            </Array>
          </mxGeometry>
        </mxCell>
        <mxCell id="a2V4H0LdFu0M5qWoZMPw-39" value="Специалисты (операторы, 3D-художники, инженеры)" style="text;html=1;align=center;verticalAlign=middle;whiteSpace=wrap;rounded=0;" vertex="1" parent="1">
          <mxGeometry x="610" y="794" width="197" height="40" as="geometry" />
        </mxCell>
        <mxCell id="a2V4H0LdFu0M5qWoZMPw-40" style="edgeStyle=orthogonalEdgeStyle;rounded=0;orthogonalLoop=1;jettySize=auto;html=1;entryX=0.585;entryY=0.987;entryDx=0;entryDy=0;entryPerimeter=0;exitX=0.5;exitY=0;exitDx=0;exitDy=0;" edge="1" parent="1" source="a2V4H0LdFu0M5qWoZMPw-38" target="a2V4H0LdFu0M5qWoZMPw-1">
          <mxGeometry relative="1" as="geometry">
            <mxPoint x="400" y="710" as="sourcePoint" />
            <mxPoint x="495" y="540" as="targetPoint" />
            <Array as="points">
              <mxPoint x="496" y="780" />
            </Array>
          </mxGeometry>
        </mxCell>
        <mxCell id="a2V4H0LdFu0M5qWoZMPw-42" style="edgeStyle=orthogonalEdgeStyle;rounded=0;orthogonalLoop=1;jettySize=auto;html=1;entryX=-0.011;entryY=0.42;entryDx=0;entryDy=0;entryPerimeter=0;" edge="1" parent="1" target="a2V4H0LdFu0M5qWoZMPw-29">
          <mxGeometry relative="1" as="geometry">
            <mxPoint x="320" y="500" as="sourcePoint" />
            <mxPoint x="420" y="500" as="targetPoint" />
            <Array as="points">
              <mxPoint x="310" y="500" />
              <mxPoint x="310" y="640" />
              <mxPoint x="989" y="640" />
              <mxPoint x="989" y="535" />
            </Array>
          </mxGeometry>
        </mxCell>
        <mxCell id="a2V4H0LdFu0M5qWoZMPw-44" style="edgeStyle=orthogonalEdgeStyle;rounded=0;orthogonalLoop=1;jettySize=auto;html=1;entryX=0.5;entryY=0;entryDx=0;entryDy=0;" edge="1" parent="1" source="a2V4H0LdFu0M5qWoZMPw-43" target="a2V4H0LdFu0M5qWoZMPw-29">
          <mxGeometry relative="1" as="geometry" />
        </mxCell>
        <mxCell id="a2V4H0LdFu0M5qWoZMPw-43" value="Требования к структуре входных данных" style="text;html=1;align=center;verticalAlign=middle;resizable=0;points=[];autosize=1;strokeColor=none;fillColor=none;" vertex="1" parent="1">
          <mxGeometry x="1000" y="450" width="250" height="30" as="geometry" />
        </mxCell>
        <mxCell id="a2V4H0LdFu0M5qWoZMPw-55" style="edgeStyle=orthogonalEdgeStyle;rounded=0;orthogonalLoop=1;jettySize=auto;html=1;entryX=0.25;entryY=1;entryDx=0;entryDy=0;" edge="1" parent="1" source="a2V4H0LdFu0M5qWoZMPw-53" target="a2V4H0LdFu0M5qWoZMPw-29">
          <mxGeometry relative="1" as="geometry" />
        </mxCell>
        <mxCell id="a2V4H0LdFu0M5qWoZMPw-53" value="ПО/Скрипты для сортировки и каталогизации" style="text;html=1;align=center;verticalAlign=middle;resizable=0;points=[];autosize=1;strokeColor=none;fillColor=none;" vertex="1" parent="1">
          <mxGeometry x="880" y="670" width="280" height="30" as="geometry" />
        </mxCell>
        <mxCell id="a2V4H0LdFu0M5qWoZMPw-56" style="edgeStyle=orthogonalEdgeStyle;rounded=0;orthogonalLoop=1;jettySize=auto;html=1;entryX=0.75;entryY=1;entryDx=0;entryDy=0;" edge="1" parent="1" source="a2V4H0LdFu0M5qWoZMPw-54" target="a2V4H0LdFu0M5qWoZMPw-29">
          <mxGeometry relative="1" as="geometry" />
        </mxCell>
        <mxCell id="a2V4H0LdFu0M5qWoZMPw-54" value="Специалисты (операторы)" style="text;html=1;align=center;verticalAlign=middle;resizable=0;points=[];autosize=1;strokeColor=none;fillColor=none;" vertex="1" parent="1">
          <mxGeometry x="1180" y="670" width="170" height="30" as="geometry" />
        </mxCell>
        <mxCell id="a2V4H0LdFu0M5qWoZMPw-58" style="edgeStyle=orthogonalEdgeStyle;rounded=0;orthogonalLoop=1;jettySize=auto;html=1;exitX=1;exitY=0.5;exitDx=0;exitDy=0;entryX=0;entryY=0.5;entryDx=0;entryDy=0;" edge="1" parent="1" source="a2V4H0LdFu0M5qWoZMPw-29" target="a2V4H0LdFu0M5qWoZMPw-76">
          <mxGeometry relative="1" as="geometry">
            <mxPoint x="1390" y="584" as="targetPoint" />
            <mxPoint x="1260" y="584" as="sourcePoint" />
            <Array as="points">
              <mxPoint x="1190" y="580" />
              <mxPoint x="1470" y="580" />
              <mxPoint x="1470" y="810" />
              <mxPoint x="2530" y="810" />
            </Array>
          </mxGeometry>
        </mxCell>
        <mxCell id="a2V4H0LdFu0M5qWoZMPw-59" value="Датасет для Фотометрического стерео" style="edgeLabel;html=1;align=center;verticalAlign=middle;resizable=0;points=[];" vertex="1" connectable="0" parent="a2V4H0LdFu0M5qWoZMPw-58">
          <mxGeometry x="-0.0799" relative="1" as="geometry">
            <mxPoint x="721" y="-17" as="offset" />
          </mxGeometry>
        </mxCell>
        <mxCell id="a2V4H0LdFu0M5qWoZMPw-60" value="П" style="group" vertex="1" connectable="0" parent="1">
          <mxGeometry x="1630" y="510" width="150" height="68" as="geometry" />
        </mxCell>
        <mxCell id="a2V4H0LdFu0M5qWoZMPw-63" value="Построение базовой 3D модели" style="rounded=0;whiteSpace=wrap;html=1;" vertex="1" parent="a2V4H0LdFu0M5qWoZMPw-60">
          <mxGeometry width="130" height="60" as="geometry" />
        </mxCell>
        <mxCell id="a2V4H0LdFu0M5qWoZMPw-64" value="2" style="text;html=1;align=center;verticalAlign=middle;whiteSpace=wrap;rounded=0;" vertex="1" parent="a2V4H0LdFu0M5qWoZMPw-60">
          <mxGeometry x="90" y="38" width="60" height="30" as="geometry" />
        </mxCell>
        <mxCell id="a2V4H0LdFu0M5qWoZMPw-48" style="edgeStyle=orthogonalEdgeStyle;rounded=0;orthogonalLoop=1;jettySize=auto;html=1;entryX=0;entryY=0.5;entryDx=0;entryDy=0;" edge="1" parent="1" source="a2V4H0LdFu0M5qWoZMPw-29" target="a2V4H0LdFu0M5qWoZMPw-63">
          <mxGeometry relative="1" as="geometry">
            <mxPoint x="1320" y="540" as="targetPoint" />
            <Array as="points">
              <mxPoint x="1620" y="540" />
            </Array>
          </mxGeometry>
        </mxCell>
        <mxCell id="a2V4H0LdFu0M5qWoZMPw-49" value="Датасет для Фотограмметрии (Кросс-поляризованные и нормальные снимки)" style="edgeLabel;html=1;align=center;verticalAlign=middle;resizable=0;points=[];" vertex="1" connectable="0" parent="a2V4H0LdFu0M5qWoZMPw-48">
          <mxGeometry x="-0.0799" relative="1" as="geometry">
            <mxPoint x="30" y="-17" as="offset" />
          </mxGeometry>
        </mxCell>
        <mxCell id="a2V4H0LdFu0M5qWoZMPw-71" style="edgeStyle=orthogonalEdgeStyle;rounded=0;orthogonalLoop=1;jettySize=auto;html=1;entryX=0.5;entryY=1;entryDx=0;entryDy=0;" edge="1" parent="1" source="a2V4H0LdFu0M5qWoZMPw-70" target="a2V4H0LdFu0M5qWoZMPw-63">
          <mxGeometry relative="1" as="geometry" />
        </mxCell>
        <mxCell id="a2V4H0LdFu0M5qWoZMPw-70" value="Аппаратное обеспечение (GPU, рабочая станция)" style="text;html=1;align=center;verticalAlign=middle;whiteSpace=wrap;rounded=0;" vertex="1" parent="1">
          <mxGeometry x="1710" y="620" width="120" height="40" as="geometry" />
        </mxCell>
        <mxCell id="a2V4H0LdFu0M5qWoZMPw-72" value="П" style="group" vertex="1" connectable="0" parent="1">
          <mxGeometry x="2060" y="636" width="150" height="68" as="geometry" />
        </mxCell>
        <mxCell id="a2V4H0LdFu0M5qWoZMPw-73" value="Рассчёт Локальных Roughness Maps" style="rounded=0;whiteSpace=wrap;html=1;" vertex="1" parent="a2V4H0LdFu0M5qWoZMPw-72">
          <mxGeometry width="130" height="60" as="geometry" />
        </mxCell>
        <mxCell id="a2V4H0LdFu0M5qWoZMPw-74" value="3" style="text;html=1;align=center;verticalAlign=middle;whiteSpace=wrap;rounded=0;" vertex="1" parent="a2V4H0LdFu0M5qWoZMPw-72">
          <mxGeometry x="90" y="38" width="60" height="30" as="geometry" />
        </mxCell>
        <mxCell id="a2V4H0LdFu0M5qWoZMPw-75" value="П" style="group" vertex="1" connectable="0" parent="1">
          <mxGeometry x="2560" y="780" width="150" height="68" as="geometry" />
        </mxCell>
        <mxCell id="a2V4H0LdFu0M5qWoZMPw-76" value="Получение локальных Normal и Displacement Maps" style="rounded=0;whiteSpace=wrap;html=1;" vertex="1" parent="a2V4H0LdFu0M5qWoZMPw-75">
          <mxGeometry width="130" height="60" as="geometry" />
        </mxCell>
        <mxCell id="a2V4H0LdFu0M5qWoZMPw-77" value="4" style="text;html=1;align=center;verticalAlign=middle;whiteSpace=wrap;rounded=0;" vertex="1" parent="a2V4H0LdFu0M5qWoZMPw-75">
          <mxGeometry x="90" y="38" width="60" height="30" as="geometry" />
        </mxCell>
        <mxCell id="a2V4H0LdFu0M5qWoZMPw-92" style="edgeStyle=orthogonalEdgeStyle;rounded=0;orthogonalLoop=1;jettySize=auto;html=1;" edge="1" parent="1" source="a2V4H0LdFu0M5qWoZMPw-29" target="a2V4H0LdFu0M5qWoZMPw-73">
          <mxGeometry relative="1" as="geometry">
            <Array as="points">
              <mxPoint x="1550" y="540" />
              <mxPoint x="1550" y="666" />
            </Array>
          </mxGeometry>
        </mxCell>
        <mxCell id="a2V4H0LdFu0M5qWoZMPw-97" style="edgeStyle=orthogonalEdgeStyle;rounded=0;orthogonalLoop=1;jettySize=auto;html=1;entryX=0.5;entryY=1;entryDx=0;entryDy=0;" edge="1" parent="1" source="a2V4H0LdFu0M5qWoZMPw-94" target="a2V4H0LdFu0M5qWoZMPw-73">
          <mxGeometry relative="1" as="geometry" />
        </mxCell>
        <mxCell id="a2V4H0LdFu0M5qWoZMPw-94" value="Скрипты/ПО для операции вычитания" style="text;html=1;align=center;verticalAlign=middle;resizable=0;points=[];autosize=1;strokeColor=none;fillColor=none;" vertex="1" parent="1">
          <mxGeometry x="1850" y="740" width="240" height="30" as="geometry" />
        </mxCell>
        <mxCell id="a2V4H0LdFu0M5qWoZMPw-95" value="Специалисты для проверки корректности" style="text;html=1;align=center;verticalAlign=middle;resizable=0;points=[];autosize=1;strokeColor=none;fillColor=none;" vertex="1" parent="1">
          <mxGeometry x="2080" y="740" width="260" height="30" as="geometry" />
        </mxCell>
        <mxCell id="a2V4H0LdFu0M5qWoZMPw-98" style="edgeStyle=orthogonalEdgeStyle;rounded=0;orthogonalLoop=1;jettySize=auto;html=1;entryX=0.592;entryY=0.982;entryDx=0;entryDy=0;entryPerimeter=0;" edge="1" parent="1" source="a2V4H0LdFu0M5qWoZMPw-95" target="a2V4H0LdFu0M5qWoZMPw-73">
          <mxGeometry relative="1" as="geometry" />
        </mxCell>
        <mxCell id="a2V4H0LdFu0M5qWoZMPw-100" style="edgeStyle=orthogonalEdgeStyle;rounded=0;orthogonalLoop=1;jettySize=auto;html=1;entryX=0.5;entryY=0;entryDx=0;entryDy=0;" edge="1" parent="1" source="a2V4H0LdFu0M5qWoZMPw-99" target="a2V4H0LdFu0M5qWoZMPw-73">
          <mxGeometry relative="1" as="geometry" />
        </mxCell>
        <mxCell id="a2V4H0LdFu0M5qWoZMPw-99" value="Формула вычисления" style="text;html=1;align=center;verticalAlign=middle;resizable=0;points=[];autosize=1;strokeColor=none;fillColor=none;" vertex="1" parent="1">
          <mxGeometry x="2055" y="578" width="140" height="30" as="geometry" />
        </mxCell>
        <mxCell id="a2V4H0LdFu0M5qWoZMPw-107" style="edgeStyle=orthogonalEdgeStyle;rounded=0;orthogonalLoop=1;jettySize=auto;html=1;entryX=0.25;entryY=1;entryDx=0;entryDy=0;" edge="1" parent="1" source="a2V4H0LdFu0M5qWoZMPw-105" target="a2V4H0LdFu0M5qWoZMPw-76">
          <mxGeometry relative="1" as="geometry" />
        </mxCell>
        <mxCell id="a2V4H0LdFu0M5qWoZMPw-105" value="Аппаратное обеспечение" style="text;html=1;align=center;verticalAlign=middle;resizable=0;points=[];autosize=1;strokeColor=none;fillColor=none;" vertex="1" parent="1">
          <mxGeometry x="2410" y="910" width="160" height="30" as="geometry" />
        </mxCell>
        <mxCell id="a2V4H0LdFu0M5qWoZMPw-108" style="edgeStyle=orthogonalEdgeStyle;rounded=0;orthogonalLoop=1;jettySize=auto;html=1;entryX=0;entryY=0.75;entryDx=0;entryDy=0;" edge="1" parent="1" source="a2V4H0LdFu0M5qWoZMPw-106" target="a2V4H0LdFu0M5qWoZMPw-77">
          <mxGeometry relative="1" as="geometry">
            <Array as="points">
              <mxPoint x="2650" y="860" />
              <mxPoint x="2650" y="860" />
            </Array>
          </mxGeometry>
        </mxCell>
        <mxCell id="a2V4H0LdFu0M5qWoZMPw-106" value="Специалисты" style="text;html=1;align=center;verticalAlign=middle;resizable=0;points=[];autosize=1;strokeColor=none;fillColor=none;" vertex="1" parent="1">
          <mxGeometry x="2600" y="900" width="100" height="30" as="geometry" />
        </mxCell>
        <mxCell id="a2V4H0LdFu0M5qWoZMPw-110" value="П" style="group" vertex="1" connectable="0" parent="1">
          <mxGeometry x="2930" y="862" width="180" height="68" as="geometry" />
        </mxCell>
        <mxCell id="a2V4H0LdFu0M5qWoZMPw-111" value="Объединение карт и формирование итоговой 3D модели" style="rounded=0;whiteSpace=wrap;html=1;" vertex="1" parent="a2V4H0LdFu0M5qWoZMPw-110">
          <mxGeometry width="156" height="60" as="geometry" />
        </mxCell>
        <mxCell id="a2V4H0LdFu0M5qWoZMPw-112" value="5" style="text;html=1;align=center;verticalAlign=middle;whiteSpace=wrap;rounded=0;" vertex="1" parent="a2V4H0LdFu0M5qWoZMPw-110">
          <mxGeometry x="108" y="38" width="72" height="30" as="geometry" />
        </mxCell>
        <mxCell id="a2V4H0LdFu0M5qWoZMPw-116" style="edgeStyle=orthogonalEdgeStyle;rounded=0;orthogonalLoop=1;jettySize=auto;html=1;" edge="1" parent="1" target="a2V4H0LdFu0M5qWoZMPw-111">
          <mxGeometry relative="1" as="geometry">
            <mxPoint x="3008" y="820" as="sourcePoint" />
          </mxGeometry>
        </mxCell>
        <mxCell id="a2V4H0LdFu0M5qWoZMPw-115" value="Методы совмещения карт" style="text;html=1;align=center;verticalAlign=middle;whiteSpace=wrap;rounded=0;" vertex="1" parent="1">
          <mxGeometry x="2978" y="770" width="60" height="30" as="geometry" />
        </mxCell>
        <mxCell id="a2V4H0LdFu0M5qWoZMPw-119" style="edgeStyle=orthogonalEdgeStyle;rounded=0;orthogonalLoop=1;jettySize=auto;html=1;" edge="1" parent="1" source="a2V4H0LdFu0M5qWoZMPw-117" target="a2V4H0LdFu0M5qWoZMPw-111">
          <mxGeometry relative="1" as="geometry" />
        </mxCell>
        <mxCell id="a2V4H0LdFu0M5qWoZMPw-117" value="3D редакторы" style="text;html=1;align=center;verticalAlign=middle;whiteSpace=wrap;rounded=0;" vertex="1" parent="1">
          <mxGeometry x="2918" y="970" width="60" height="30" as="geometry" />
        </mxCell>
        <mxCell id="a2V4H0LdFu0M5qWoZMPw-118" value="Специалисты" style="text;html=1;align=center;verticalAlign=middle;whiteSpace=wrap;rounded=0;" vertex="1" parent="1">
          <mxGeometry x="3020" y="970" width="60" height="30" as="geometry" />
        </mxCell>
        <mxCell id="a2V4H0LdFu0M5qWoZMPw-121" style="edgeStyle=orthogonalEdgeStyle;rounded=0;orthogonalLoop=1;jettySize=auto;html=1;entryX=0.631;entryY=0.98;entryDx=0;entryDy=0;entryPerimeter=0;" edge="1" parent="1" source="a2V4H0LdFu0M5qWoZMPw-118" target="a2V4H0LdFu0M5qWoZMPw-111">
          <mxGeometry relative="1" as="geometry" />
        </mxCell>
        <mxCell id="a2V4H0LdFu0M5qWoZMPw-86" style="edgeStyle=orthogonalEdgeStyle;rounded=0;orthogonalLoop=1;jettySize=auto;html=1;entryX=0;entryY=0.5;entryDx=0;entryDy=0;" edge="1" parent="1" source="a2V4H0LdFu0M5qWoZMPw-63" target="a2V4H0LdFu0M5qWoZMPw-111">
          <mxGeometry relative="1" as="geometry">
            <mxPoint x="1920" y="400" as="targetPoint" />
            <Array as="points">
              <mxPoint x="2880" y="540" />
              <mxPoint x="2880" y="892" />
            </Array>
          </mxGeometry>
        </mxCell>
        <mxCell id="a2V4H0LdFu0M5qWoZMPw-87" value="Предварительная 3D модель" style="edgeLabel;html=1;align=center;verticalAlign=middle;resizable=0;points=[];" vertex="1" connectable="0" parent="a2V4H0LdFu0M5qWoZMPw-86">
          <mxGeometry x="-0.3929" y="-2" relative="1" as="geometry">
            <mxPoint x="-382" y="-12" as="offset" />
          </mxGeometry>
        </mxCell>
        <mxCell id="a2V4H0LdFu0M5qWoZMPw-89" style="edgeStyle=orthogonalEdgeStyle;rounded=0;orthogonalLoop=1;jettySize=auto;html=1;entryX=0;entryY=0.75;entryDx=0;entryDy=0;" edge="1" parent="1" source="a2V4H0LdFu0M5qWoZMPw-63" target="a2V4H0LdFu0M5qWoZMPw-111">
          <mxGeometry relative="1" as="geometry">
            <mxPoint x="1879.9999999999995" y="600" as="targetPoint" />
            <Array as="points">
              <mxPoint x="2830" y="570" />
              <mxPoint x="2830" y="907" />
            </Array>
          </mxGeometry>
        </mxCell>
        <mxCell id="a2V4H0LdFu0M5qWoZMPw-91" value="Diffuse Map" style="edgeLabel;html=1;align=center;verticalAlign=middle;resizable=0;points=[];" vertex="1" connectable="0" parent="a2V4H0LdFu0M5qWoZMPw-89">
          <mxGeometry x="-0.2319" relative="1" as="geometry">
            <mxPoint x="-539" y="-7" as="offset" />
          </mxGeometry>
        </mxCell>
        <mxCell id="a2V4H0LdFu0M5qWoZMPw-78" style="edgeStyle=orthogonalEdgeStyle;rounded=0;orthogonalLoop=1;jettySize=auto;html=1;entryX=0;entryY=0.25;entryDx=0;entryDy=0;" edge="1" parent="1" source="a2V4H0LdFu0M5qWoZMPw-73" target="a2V4H0LdFu0M5qWoZMPw-111">
          <mxGeometry relative="1" as="geometry">
            <mxPoint x="2380" y="666" as="targetPoint" />
            <Array as="points">
              <mxPoint x="2850" y="666" />
              <mxPoint x="2850" y="877" />
            </Array>
          </mxGeometry>
        </mxCell>
        <mxCell id="a2V4H0LdFu0M5qWoZMPw-82" value="Набор локальных Roughness Map" style="edgeLabel;html=1;align=center;verticalAlign=middle;resizable=0;points=[];" vertex="1" connectable="0" parent="a2V4H0LdFu0M5qWoZMPw-78">
          <mxGeometry x="0.5481" y="-2" relative="1" as="geometry">
            <mxPoint x="-538" y="-68" as="offset" />
          </mxGeometry>
        </mxCell>
        <mxCell id="a2V4H0LdFu0M5qWoZMPw-123" style="edgeStyle=orthogonalEdgeStyle;rounded=0;orthogonalLoop=1;jettySize=auto;html=1;entryX=0;entryY=0;entryDx=0;entryDy=0;" edge="1" parent="1" source="a2V4H0LdFu0M5qWoZMPw-76" target="a2V4H0LdFu0M5qWoZMPw-111">
          <mxGeometry relative="1" as="geometry">
            <Array as="points">
              <mxPoint x="2720" y="810" />
              <mxPoint x="2720" y="862" />
            </Array>
          </mxGeometry>
        </mxCell>
        <mxCell id="a2V4H0LdFu0M5qWoZMPw-124" value="Набор локальных Normal Map" style="edgeLabel;html=1;align=center;verticalAlign=middle;resizable=0;points=[];" vertex="1" connectable="0" parent="a2V4H0LdFu0M5qWoZMPw-123">
          <mxGeometry x="-0.0651" y="-2" relative="1" as="geometry">
            <mxPoint x="25" y="-16" as="offset" />
          </mxGeometry>
        </mxCell>
        <mxCell id="a2V4H0LdFu0M5qWoZMPw-126" style="edgeStyle=orthogonalEdgeStyle;rounded=0;orthogonalLoop=1;jettySize=auto;html=1;entryX=0;entryY=1;entryDx=0;entryDy=0;" edge="1" parent="1" source="a2V4H0LdFu0M5qWoZMPw-76" target="a2V4H0LdFu0M5qWoZMPw-111">
          <mxGeometry relative="1" as="geometry">
            <Array as="points">
              <mxPoint x="2700" y="810" />
              <mxPoint x="2700" y="922" />
            </Array>
          </mxGeometry>
        </mxCell>
        <mxCell id="a2V4H0LdFu0M5qWoZMPw-127" value="Набор локальных Displacement Map" style="edgeLabel;html=1;align=center;verticalAlign=middle;resizable=0;points=[];" vertex="1" connectable="0" parent="1">
          <mxGeometry x="2800.0017002123423" y="910.0011496034647" as="geometry" />
        </mxCell>
        <mxCell id="a2V4H0LdFu0M5qWoZMPw-129" value="&lt;span style=&quot;font-size: 11px; text-wrap-mode: nowrap; background-color: rgb(255, 255, 255);&quot;&gt;Высококачественная 3D модель&lt;/span&gt;" style="text;html=1;align=center;verticalAlign=middle;whiteSpace=wrap;rounded=0;" vertex="1" parent="1">
          <mxGeometry x="3220" y="877" width="190" height="30" as="geometry" />
        </mxCell>
        <mxCell id="a2V4H0LdFu0M5qWoZMPw-131" style="edgeStyle=orthogonalEdgeStyle;rounded=0;orthogonalLoop=1;jettySize=auto;html=1;exitX=1;exitY=0.25;exitDx=0;exitDy=0;" edge="1" parent="1" source="a2V4H0LdFu0M5qWoZMPw-111" target="a2V4H0LdFu0M5qWoZMPw-129">
          <mxGeometry relative="1" as="geometry">
            <Array as="points">
              <mxPoint x="3086" y="890" />
            </Array>
          </mxGeometry>
        </mxCell>
      </root>
    </mxGraphModel>
  </diagram>
</mxfile>
